<svg xmlns="http://www.w3.org/2000/svg" viewBox="0 0 200 50">
  <g fill="#E41C34">
    <path d="M50,25 C50,38.8 38.8,50 25,50 C11.2,50 0,38.8 0,25 C0,11.2 11.2,0 25,0 C38.8,0 50,11.2 50,25"/>
    <path fill="#FFFFFF" d="M25,15 C29.4,15 33,18.6 33,23 C33,27.4 29.4,31 25,31 C20.6,31 17,27.4 17,23 C17,18.6 20.6,15 25,15"/>
    <path d="M25,19 C27.2,19 29,20.8 29,23 C29,25.2 27.2,27 25,27 C22.8,27 21,25.2 21,23 C21,20.8 22.8,19 25,19"/>
  </g>
  <g fill="#111111">
    <path d="M65,15 L70,15 C73,15 75,17 75,20 C75,23 73,25 70,25 L67,25 L67,30 L65,30 L65,15 Z M67,23 L70,23 C72,23 73,22 73,20 C73,18 72,17 70,17 L67,17 L67,23 Z"/>
    <path d="M80,15 L85,15 C88,15 90,17 90,20 C90,22 89,24 87,25 L90,30 L87,30 L85,26 L82,26 L82,30 L80,30 L80,15 Z M82,24 L85,24 C87,24 88,23 88,21 C88,19 87,18 85,18 L82,18 L82,24 Z"/>
    <path d="M95,15 L103,15 L103,17 L97,17 L97,21 L102,21 L102,23 L97,23 L97,28 L103,28 L103,30 L95,30 L95,15 Z"/>
    <path d="M108,15 L110,15 L110,28 L116,28 L116,30 L108,30 L108,15 Z"/>
    <path d="M120,15 L122,15 L122,30 L120,30 L120,15 Z"/>
    <path d="M130,15 L132,15 L138,26 L138,15 L140,15 L140,30 L138,30 L132,19 L132,30 L130,30 L130,15 Z"/>
    <path d="M145,15 L153,15 L153,17 L147,17 L147,21 L152,21 L152,23 L147,23 L147,28 L153,28 L153,30 L145,30 L145,15 Z"/>
    <path d="M160,15 L162,15 L162,30 L160,30 L160,15 Z"/>
    <path d="M170,15 L172,15 L172,30 L170,30 L170,15 Z"/>
    <path d="M180,15 L185,15 C188,15 190,17 190,20 C190,23 188,25 185,25 L182,25 L182,30 L180,30 L180,15 Z M182,23 L185,23 C187,23 188,22 188,20 C188,18 187,17 185,17 L182,17 L182,23 Z"/>
    <path d="M195,15 L203,15 L203,17 L197,17 L197,21 L202,21 L202,23 L197,23 L197,28 L203,28 L203,30 L195,30 L195,15 Z"/>
  </g>
</svg>
